 <svg  version="1.0" xmlns="http://www.w3.org/2000/svg"  width="900.000000pt" height="900.000000pt" viewBox="0 0 900.000000 900.000000"  preserveAspectRatio="xMidYMid meet">  <g transform="translate(0.000000,900.000000) scale(0.100000,-0.100000)" fill="#ff7f7f" stroke="none"> <path d="M1385 6250 c-119 -8 -135 -14 -135 -49 0 -14 -7 -55 -14 -91 -8 -36 -17 -104 -21 -152 l-7 -88 1076 0 c693 0 1084 -4 1096 -10 10 -5 22 -24 25 -42 4 -18 10 -37 14 -43 4 -5 17 -37 30 -70 37 -99 53 -138 67 -172 8 -17 14 -38 14 -46 0 -9 4 -18 9 -22 5 -3 13 -20 17 -37 3 -18 10 -39 15 -48 5 -8 25 -58 44 -110 43 -113 63 -164 81 -207 8 -17 14 -38 14 -46 0 -9 4 -18 9 -22 5 -3 13 -20 17 -37 3 -18 10 -39 15 -48 5 -8 25 -58 44 -110 43 -113 63 -164 81 -207 8 -17 14 -36 14 -42 0 -6 4 -19 10 -29 5 -9 26 -60 45 -112 43 -113 63 -164 81 -207 8 -17 14 -38 14 -46 0 -9 4 -18 9 -22 5 -3 13 -20 17 -37 3 -18 10 -39 15 -48 5 -8 25 -58 45 -110 19 -52 42 -109 50 -127 8 -17 14 -38 14 -46 0 -9 4 -18 9 -22 5 -3 13 -20 17 -37 3 -18 10 -39 15 -48 5 -8 25 -58 44 -110 43 -113 63 -164 81 -207 8 -17 14 -38 14 -46 0 -9 4 -18 9 -22 5 -3 13 -20 16 -38 4 -17 16 -44 27 -59 16 -24 26 -28 67 -28 60 0 68 8 120 135 23 55 46 109 51 120 5 11 18 43 30 70 12 28 25 59 30 70 8 18 28 65 62 145 5 14 16 39 23 55 8 17 21 48 30 70 9 22 22 54 30 70 7 17 43 102 80 190 36 88 70 169 75 180 5 11 18 43 30 70 12 28 25 59 30 70 8 18 28 65 62 145 5 14 16 39 23 55 7 17 50 118 95 225 44 107 85 204 90 215 5 11 18 43 30 70 12 28 28 66 36 85 9 19 20 46 26 60 11 27 32 78 53 125 7 17 43 102 80 190 89 215 94 225 114 265 l17 35 1099 5 1100 5 3 178 2 177 -27 13 c-22 9 -310 12 -1288 12 -1320 0 -1307 0 -1322 -42 -3 -10 -14 -36 -23 -58 -9 -22 -23 -56 -30 -75 -20 -53 -50 -123 -60 -142 -6 -10 -10 -23 -10 -28 0 -11 -33 -91 -50 -122 -6 -10 -10 -23 -10 -28 0 -11 -33 -91 -50 -122 -6 -10 -10 -23 -10 -29 0 -10 -8 -30 -45 -114 -7 -16 -23 -55 -34 -85 -12 -30 -26 -64 -31 -75 -4 -11 -18 -45 -30 -75 -11 -30 -25 -64 -30 -75 -4 -11 -18 -45 -30 -75 -11 -30 -25 -64 -30 -75 -4 -11 -18 -45 -30 -75 -11 -30 -25 -64 -30 -75 -5 -11 -23 -58 -41 -105 -39 -102 -46 -112 -55 -75 -4 16 -13 40 -20 54 -8 14 -14 33 -14 41 0 9 -4 20 -9 25 -5 6 -14 26 -20 45 -11 38 -61 178 -79 223 -7 16 -12 32 -12 37 0 4 -7 21 -15 36 -8 16 -15 37 -15 46 0 9 -4 19 -9 22 -5 3 -12 18 -15 33 -8 32 -62 183 -82 230 -8 17 -14 38 -14 46 0 9 -4 18 -9 22 -5 3 -13 20 -17 38 -3 17 -13 45 -20 62 -7 16 -27 71 -45 120 -17 50 -38 104 -45 122 -8 17 -14 38 -14 46 0 9 -4 18 -9 22 -5 3 -13 20 -17 38 -3 17 -13 45 -20 62 -7 16 -23 58 -34 91 -16 45 -29 65 -48 75 -22 12 -245 14 -1302 15 -701 1 -1320 -2 -1375 -6z"/> <path d="M2331 5726 c-8 -10 -10 -354 -9 -1287 l3 -1274 422 -3 422 -2 12 22 c18 33 26 393 9 413 -10 12 -39 15 -144 15 -90 0 -138 4 -149 13 -16 11 -17 53 -15 552 3 498 4 540 20 543 12 2 23 -10 37 -42 12 -25 21 -49 21 -54 0 -5 7 -23 15 -38 8 -16 15 -36 15 -44 0 -9 4 -20 8 -25 5 -6 17 -32 27 -60 37 -104 108 -287 131 -342 8 -17 14 -38 14 -46 0 -9 4 -18 9 -22 5 -3 12 -19 16 -36 4 -17 13 -42 21 -57 8 -15 14 -32 14 -38 0 -7 7 -25 15 -40 8 -16 15 -36 15 -45 0 -8 4 -19 8 -25 5 -5 17 -31 27 -59 17 -49 70 -189 102 -270 8 -22 22 -58 30 -80 9 -22 22 -54 29 -72 8 -17 14 -38 14 -46 0 -9 4 -18 9 -22 5 -3 12 -19 16 -36 4 -17 13 -42 21 -57 8 -15 14 -35 14 -44 0 -9 4 -19 9 -23 5 -3 13 -20 17 -37 3 -18 10 -39 15 -48 5 -8 25 -58 44 -110 82 -216 95 -248 110 -260 42 -35 1278 -28 1318 7 9 9 17 21 17 27 0 13 45 124 54 133 3 3 6 13 6 21 0 8 6 28 14 45 14 34 30 75 67 172 13 33 27 64 31 70 4 5 8 15 8 23 0 8 6 28 14 45 8 18 31 75 50 127 20 52 41 103 46 112 6 10 10 23 10 29 0 6 6 25 14 42 8 18 31 75 50 127 20 52 41 103 46 112 6 10 10 23 10 29 0 6 6 25 14 42 8 18 31 75 50 127 20 52 41 103 46 112 6 10 10 23 10 29 0 6 6 25 14 42 8 18 31 75 50 127 20 52 41 103 46 112 6 10 10 23 10 29 0 6 6 25 14 42 8 18 31 75 51 127 19 52 40 104 44 115 5 11 12 28 15 38 3 9 15 17 26 17 20 0 20 -2 18 -552 l-3 -553 -130 -5 -129 -5 -12 -35 c-17 -51 -38 -222 -39 -320 l0 -85 529 -3 c382 -1 533 1 542 9 19 16 21 2538 2 2557 -9 9 -116 12 -419 12 -224 0 -414 -3 -423 -6 -14 -5 -29 -33 -71 -132 -8 -18 -22 -49 -31 -70 -9 -20 -22 -52 -30 -70 -7 -18 -21 -49 -30 -70 -9 -20 -22 -52 -30 -70 -7 -18 -20 -48 -28 -67 -9 -20 -22 -51 -30 -70 -9 -20 -22 -50 -30 -68 -8 -17 -22 -50 -31 -72 -9 -22 -23 -56 -32 -75 -8 -19 -22 -51 -30 -70 -8 -19 -22 -51 -30 -70 -8 -19 -22 -51 -30 -70 -8 -19 -21 -48 -28 -65 -7 -16 -23 -55 -35 -85 -12 -30 -26 -59 -31 -65 -5 -5 -9 -15 -9 -22 0 -7 -13 -41 -29 -75 -15 -35 -106 -245 -200 -468 -95 -223 -176 -414 -181 -425 -5 -11 -18 -42 -30 -70 -12 -27 -25 -59 -30 -70 -5 -11 -18 -42 -30 -70 -34 -80 -51 -119 -60 -140 -5 -11 -18 -40 -28 -65 -11 -25 -25 -60 -33 -77 -8 -18 -16 -33 -19 -33 -3 -1 -67 -1 -143 -2 -152 -1 -158 1 -173 67 -4 16 -10 36 -15 45 -5 8 -25 58 -45 110 -19 52 -42 109 -50 127 -8 17 -14 37 -14 45 0 8 -4 18 -8 24 -4 5 -18 36 -31 69 -13 33 -29 74 -37 92 -8 17 -14 37 -14 45 0 8 -4 18 -8 24 -4 5 -18 36 -31 69 -37 97 -53 138 -67 172 -8 17 -14 37 -14 45 0 8 -4 18 -8 24 -4 5 -18 36 -31 69 -13 33 -29 74 -37 92 -8 17 -14 37 -14 45 0 8 -4 18 -8 24 -4 5 -18 36 -31 69 -13 33 -29 74 -37 92 -8 17 -14 36 -14 42 0 6 -4 19 -10 29 -5 9 -26 60 -45 112 -20 52 -40 104 -45 115 -9 21 -41 100 -67 170 -9 22 -19 49 -24 60 -4 11 -18 45 -30 75 -12 30 -28 69 -35 87 -8 17 -14 36 -14 42 0 6 -4 19 -10 29 -5 9 -26 60 -46 112 -19 52 -42 109 -50 127 -8 17 -14 37 -14 45 0 8 -4 18 -8 24 -4 5 -18 36 -31 69 -13 33 -29 74 -37 92 -8 17 -14 35 -14 40 0 15 -32 77 -44 85 -6 4 -219 8 -472 8 -377 0 -464 -2 -473 -14z"/> <path d="M1186 5648 c-24 -303 -29 -408 -16 -422 10 -13 48 -16 214 -18 l201 -3 3 -784 c1 -562 -1 -788 -9 -797 -8 -10 -52 -14 -167 -16 l-156 -3 -17 -90 c-9 -49 -22 -146 -29 -214 -10 -103 -10 -125 1 -132 8 -5 222 -9 476 -9 407 0 463 2 477 16 15 14 16 140 14 1277 l-3 1262 -491 3 -492 2 -6 -72z"/> <path d="M6807 5713 c-4 -3 -7 -574 -7 -1268 0 -967 3 -1264 12 -1273 9 -9 143 -12 543 -12 291 0 535 4 541 8 17 10 30 392 15 420 -11 21 -18 22 -180 22 -130 0 -171 3 -180 14 -8 10 -10 226 -9 797 l3 784 135 5 135 5 17 50 c9 28 17 66 17 85 1 19 8 64 15 100 8 36 17 111 21 168 l7 102 -539 0 c-297 0 -543 -3 -546 -7z"/> <path d="M1195 3015 c-9 -7 -17 -76 -26 -209 l-13 -199 22 -17 c19 -16 58 -19 329 -25 340 -8 1559 -1 1584 9 9 4 22 19 29 34 22 50 62 382 48 405 -10 16 -1954 17 -1973 2z"/> <path d="M5572 3019 c-11 -4 -23 -16 -25 -26 -3 -10 -9 -104 -12 -208 -7 -175 -6 -192 10 -205 16 -13 168 -15 1119 -15 606 0 1113 3 1127 7 14 4 31 20 38 35 25 54 67 388 52 405 -8 10 -2283 16 -2309 7z"/> </g> </svg> 